<svg width="25" height="25" viewBox="0 0 25 25" fill="none" xmlns="http://www.w3.org/2000/svg">
<path d="M8.10916 4.47245C7.18656 3.89612 5.9765 3.9916 5.19768 4.77042L3.87792 6.09018C1.8735 8.09461 3.75691 13.2279 8.08466 17.5556C12.4124 21.8833 17.5456 23.7668 19.5501 21.7623L20.8698 20.4426C21.7809 19.5315 21.7568 18.0302 20.816 17.0894L18.7718 15.0452C17.831 14.1044 16.3298 14.0803 15.4186 14.9914L15.1352 15.2749C14.6433 15.7668 13.8497 15.8149 13.2958 15.3578C12.7615 14.9169 12.2294 14.4416 11.714 13.9263C11.1986 13.4109 10.7233 12.8787 10.2824 12.3445C9.82535 11.7906 9.87347 10.997 10.3654 10.5051L10.6489 10.2216C11.3671 9.50334 11.5042 8.41828 11.0691 7.5302" stroke="white" stroke-width="1.02564" stroke-linecap="round"/>
<path d="M18.0771 10.0009C17.8269 9.39048 17.4539 8.81856 16.9582 8.3229C16.4906 7.85522 15.955 7.4968 15.3833 7.24761" stroke="white" stroke-width="1.02564" stroke-linecap="round"/>
<path d="M15.3848 3.7573C16.7536 4.25321 18.038 5.04986 19.1354 6.14729C20.2604 7.27226 21.0693 8.59363 21.5622 10.0011" stroke="white" stroke-width="1.02564" stroke-linecap="round"/>
</svg>
