<svg width="25" height="25" viewBox="0 0 25 25" fill="none" xmlns="http://www.w3.org/2000/svg">
<path d="M4.79302 5.60923C4.98386 5.39996 4.96891 5.0756 4.75963 4.88476C4.55036 4.69393 4.226 4.70887 4.03517 4.91815L4.41409 5.26369L4.79302 5.60923ZM8.20438 3.58984V4.10266C8.21064 4.10266 8.21689 4.10266 8.22314 4.10266C8.22938 4.10266 8.23563 4.10266 8.24186 4.10266C8.2481 4.10266 8.25433 4.10266 8.26056 4.10266C8.26678 4.10266 8.27301 4.10266 8.27922 4.10266C8.28544 4.10266 8.29165 4.10266 8.29785 4.10266C8.30406 4.10266 8.31026 4.10266 8.31645 4.10266C8.32265 4.10266 8.32884 4.10266 8.33502 4.10266C8.34121 4.10266 8.34738 4.10266 8.35356 4.10266C8.35973 4.10266 8.3659 4.10266 8.37206 4.10266C8.37823 4.10266 8.38439 4.10266 8.39054 4.10266C8.39669 4.10266 8.40284 4.10266 8.40898 4.10266C8.41513 4.10266 8.42126 4.10266 8.4274 4.10266C8.43353 4.10266 8.43966 4.10266 8.44578 4.10266C8.4519 4.10266 8.45802 4.10266 8.46413 4.10266C8.47024 4.10266 8.47635 4.10266 8.48245 4.10266C8.48855 4.10266 8.49465 4.10266 8.50074 4.10266C8.50683 4.10266 8.51292 4.10266 8.519 4.10266C8.52508 4.10266 8.53116 4.10266 8.53723 4.10266C8.5433 4.10266 8.54937 4.10266 8.55543 4.10266C8.5615 4.10266 8.56755 4.10266 8.5736 4.10266C8.57966 4.10266 8.5857 4.10266 8.59175 4.10266C8.59779 4.10266 8.60382 4.10266 8.60986 4.10266C8.61589 4.10266 8.62192 4.10266 8.62794 4.10266C8.63396 4.10266 8.63998 4.10266 8.64599 4.10266C8.652 4.10266 8.65801 4.10266 8.66402 4.10266C8.67002 4.10266 8.67602 4.10266 8.68201 4.10266C8.688 4.10266 8.69399 4.10266 8.69998 4.10266C8.70596 4.10266 8.71194 4.10266 8.71791 4.10266C8.72389 4.10266 8.72986 4.10266 8.73582 4.10266C8.74178 4.10266 8.74774 4.10266 8.7537 4.10266C8.75965 4.10266 8.7656 4.10266 8.77155 4.10266C8.7775 4.10266 8.78344 4.10266 8.78937 4.10266C8.79531 4.10266 8.80124 4.10266 8.80717 4.10266C8.81309 4.10266 8.81902 4.10266 8.82493 4.10266C8.83085 4.10266 8.83676 4.10266 8.84267 4.10266C8.84858 4.10266 8.85448 4.10266 8.86038 4.10266C8.86628 4.10266 8.87218 4.10266 8.87807 4.10266C8.88396 4.10266 8.88984 4.10266 8.89572 4.10266C8.9016 4.10266 8.90748 4.10266 8.91335 4.10266C8.91922 4.10266 8.92509 4.10266 8.93095 4.10266C8.93681 4.10266 8.94267 4.10266 8.94852 4.10266C8.95438 4.10266 8.96023 4.10266 8.96607 4.10266C8.97191 4.10266 8.97775 4.10266 8.98359 4.10266C8.98943 4.10266 8.99526 4.10266 9.00108 4.10266C9.00691 4.10266 9.01273 4.10266 9.01855 4.10266C9.02437 4.10266 9.03018 4.10266 9.03599 4.10266C9.0418 4.10266 9.0476 4.10266 9.0534 4.10266C9.0592 4.10266 9.065 4.10266 9.07079 4.10266C9.07658 4.10266 9.08237 4.10266 9.08815 4.10266C9.09393 4.10266 9.09971 4.10266 9.10548 4.10266C9.11126 4.10266 9.11703 4.10266 9.12279 4.10266C9.12856 4.10266 9.13432 4.10266 9.14007 4.10266C9.14583 4.10266 9.15158 4.10266 9.15733 4.10266C9.16308 4.10266 9.16882 4.10266 9.17456 4.10266C9.1803 4.10266 9.18604 4.10266 9.19177 4.10266C9.1975 4.10266 9.20323 4.10266 9.20895 4.10266C9.21467 4.10266 9.22039 4.10266 9.2261 4.10266C9.23182 4.10266 9.23753 4.10266 9.24324 4.10266C9.24894 4.10266 9.25464 4.10266 9.26034 4.10266C9.26604 4.10266 9.27173 4.10266 9.27742 4.10266C9.28311 4.10266 9.2888 4.10266 9.29448 4.10266C9.30016 4.10266 9.30584 4.10266 9.31151 4.10266C9.31718 4.10266 9.32285 4.10266 9.32852 4.10266C9.33418 4.10266 9.33984 4.10266 9.3455 4.10266C9.35116 4.10266 9.35681 4.10266 9.36246 4.10266C9.36811 4.10266 9.37375 4.10266 9.37939 4.10266C9.38503 4.10266 9.39067 4.10266 9.3963 4.10266C9.40194 4.10266 9.40757 4.10266 9.41319 4.10266C9.41882 4.10266 9.42444 4.10266 9.43005 4.10266C9.43567 4.10266 9.44128 4.10266 9.44689 4.10266C9.4525 4.10266 9.45811 4.10266 9.46371 4.10266C9.46931 4.10266 9.47491 4.10266 9.4805 4.10266C9.4861 4.10266 9.49169 4.10266 9.49727 4.10266C9.50286 4.10266 9.50844 4.10266 9.51402 4.10266C9.5196 4.10266 9.52517 4.10266 9.53074 4.10266C9.53631 4.10266 9.54188 4.10266 9.54745 4.10266C9.55301 4.10266 9.55857 4.10266 9.56412 4.10266C9.56968 4.10266 9.57523 4.10266 9.58078 4.10266C9.58633 4.10266 9.59187 4.10266 9.59741 4.10266C9.60295 4.10266 9.60849 4.10266 9.61403 4.10266C9.61956 4.10266 9.62509 4.10266 9.63061 4.10266C9.63614 4.10266 9.64166 4.10266 9.64718 4.10266C9.6527 4.10266 9.65822 4.10266 9.66373 4.10266C9.66924 4.10266 9.67475 4.10266 9.68025 4.10266C9.68575 4.10266 9.69126 4.10266 9.69675 4.10266C9.70225 4.10266 9.70774 4.10266 9.71323 4.10266C9.71872 4.10266 9.72421 4.10266 9.72969 4.10266C9.73517 4.10266 9.74065 4.10266 9.74613 4.10266C9.7516 4.10266 9.75708 4.10266 9.76255 4.10266C9.76801 4.10266 9.77348 4.10266 9.77894 4.10266C9.7844 4.10266 9.78986 4.10266 9.79532 4.10266C9.80077 4.10266 9.80622 4.10266 9.81167 4.10266C9.81712 4.10266 9.82256 4.10266 9.828 4.10266C9.83344 4.10266 9.83888 4.10266 9.84432 4.10266C9.84975 4.10266 9.85518 4.10266 9.86061 4.10266C9.86603 4.10266 9.87146 4.10266 9.87688 4.10266C9.8823 4.10266 9.88772 4.10266 9.89313 4.10266C9.89855 4.10266 9.90396 4.10266 9.90936 4.10266C9.91477 4.10266 9.92017 4.10266 9.92558 4.10266C9.93098 4.10266 9.93637 4.10266 9.94177 4.10266C9.94716 4.10266 9.95255 4.10266 9.95794 4.10266C9.96333 4.10266 9.96871 4.10266 9.97409 4.10266C9.97947 4.10266 9.98485 4.10266 9.99023 4.10266C9.9956 4.10266 10.001 4.10266 10.0063 4.10266C10.0117 4.10266 10.0171 4.10266 10.0224 4.10266C10.0278 4.10266 10.0332 4.10266 10.0385 4.10266C10.0439 4.10266 10.0492 4.10266 10.0546 4.10266C10.0599 4.10266 10.0653 4.10266 10.0706 4.10266C10.076 4.10266 10.0813 4.10266 10.0866 4.10266C10.092 4.10266 10.0973 4.10266 10.1026 4.10266C10.108 4.10266 10.1133 4.10266 10.1186 4.10266C10.1239 4.10266 10.1293 4.10266 10.1346 4.10266C10.1399 4.10266 10.1452 4.10266 10.1505 4.10266C10.1558 4.10266 10.1611 4.10266 10.1665 4.10266C10.1718 4.10266 10.1771 4.10266 10.1824 4.10266C10.1877 4.10266 10.193 4.10266 10.1983 4.10266C10.2036 4.10266 10.2088 4.10266 10.2141 4.10266C10.2194 4.10266 10.2247 4.10266 10.23 4.10266C10.2353 4.10266 10.2406 4.10266 10.2458 4.10266C10.2511 4.10266 10.2564 4.10266 10.2617 4.10266C10.2669 4.10266 10.2722 4.10266 10.2775 4.10266C10.2827 4.10266 10.288 4.10266 10.2933 4.10266C10.2985 4.10266 10.3038 4.10266 10.309 4.10266C10.3143 4.10266 10.3195 4.10266 10.3248 4.10266C10.33 4.10266 10.3353 4.10266 10.3405 4.10266C10.3458 4.10266 10.351 4.10266 10.3562 4.10266C10.3615 4.10266 10.3667 4.10266 10.3719 4.10266C10.3772 4.10266 10.3824 4.10266 10.3876 4.10266C10.3929 4.10266 10.3981 4.10266 10.4033 4.10266C10.4085 4.10266 10.4138 4.10266 10.419 4.10266C10.4242 4.10266 10.4294 4.10266 10.4346 4.10266C10.4398 4.10266 10.445 4.10266 10.4502 4.10266C10.4554 4.10266 10.4606 4.10266 10.4658 4.10266C10.471 4.10266 10.4762 4.10266 10.4814 4.10266C10.4866 4.10266 10.4918 4.10266 10.497 4.10266C10.5022 4.10266 10.5074 4.10266 10.5126 4.10266C10.5178 4.10266 10.523 4.10266 10.5281 4.10266C10.5333 4.10266 10.5385 4.10266 10.5437 4.10266C10.5488 4.10266 10.554 4.10266 10.5592 4.10266C10.5644 4.10266 10.5695 4.10266 10.5747 4.10266C10.5799 4.10266 10.585 4.10266 10.5902 4.10266C10.5953 4.10266 10.6005 4.10266 10.6057 4.10266C10.6108 4.10266 10.616 4.10266 10.6211 4.10266C10.6263 4.10266 10.6314 4.10266 10.6366 4.10266C10.6417 4.10266 10.6469 4.10266 10.652 4.10266C10.6571 4.10266 10.6623 4.10266 10.6674 4.10266C10.6726 4.10266 10.6777 4.10266 10.6828 4.10266C10.688 4.10266 10.6931 4.10266 10.6982 4.10266C10.7034 4.10266 10.7085 4.10266 10.7136 4.10266C10.7187 4.10266 10.7238 4.10266 10.729 4.10266C10.7341 4.10266 10.7392 4.10266 10.7443 4.10266C10.7494 4.10266 10.7545 4.10266 10.7597 4.10266C10.7648 4.10266 10.7699 4.10266 10.775 4.10266C10.7801 4.10266 10.7852 4.10266 10.7903 4.10266C10.7954 4.10266 10.8005 4.10266 10.8056 4.10266C10.8107 4.10266 10.8158 4.10266 10.8209 4.10266C10.826 4.10266 10.8311 4.10266 10.8362 4.10266C10.8412 4.10266 10.8463 4.10266 10.8514 4.10266C10.8565 4.10266 10.8616 4.10266 10.8667 4.10266C10.8717 4.10266 10.8768 4.10266 10.8819 4.10266C10.887 4.10266 10.8921 4.10266 10.8971 4.10266C10.9022 4.10266 10.9073 4.10266 10.9123 4.10266C10.9174 4.10266 10.9225 4.10266 10.9275 4.10266C10.9326 4.10266 10.9377 4.10266 10.9427 4.10266C10.9478 4.10266 10.9528 4.10266 10.9579 4.10266C10.963 4.10266 10.968 4.10266 10.9731 4.10266C10.9781 4.10266 10.9832 4.10266 10.9882 4.10266C10.9933 4.10266 10.9983 4.10266 11.0034 4.10266C11.0084 4.10266 11.0135 4.10266 11.0185 4.10266C11.0235 4.10266 11.0286 4.10266 11.0336 4.10266C11.0387 4.10266 11.0437 4.10266 11.0487 4.10266C11.0538 4.10266 11.0588 4.10266 11.0638 4.10266C11.0689 4.10266 11.0739 4.10266 11.0789 4.10266C11.084 4.10266 11.089 4.10266 11.094 4.10266C11.099 4.10266 11.1041 4.10266 11.1091 4.10266C11.1141 4.10266 11.1191 4.10266 11.1241 4.10266C11.1291 4.10266 11.1342 4.10266 11.1392 4.10266C11.1442 4.10266 11.1492 4.10266 11.1542 4.10266C11.1592 4.10266 11.1642 4.10266 11.1692 4.10266C11.1743 4.10266 11.1793 4.10266 11.1843 4.10266C11.1893 4.10266 11.1943 4.10266 11.1993 4.10266C11.2043 4.10266 11.2093 4.10266 11.2143 4.10266C11.2193 4.10266 11.2243 4.10266 11.2293 4.10266C11.2343 4.10266 11.2393 4.10266 11.2442 4.10266C11.2492 4.10266 11.2542 4.10266 11.2592 4.10266C11.2642 4.10266 11.2692 4.10266 11.2742 4.10266C11.2792 4.10266 11.2842 4.10266 11.2891 4.10266C11.2941 4.10266 11.2991 4.10266 11.3041 4.10266C11.3091 4.10266 11.314 4.10266 11.319 4.10266C11.324 4.10266 11.329 4.10266 11.334 4.10266C11.3389 4.10266 11.3439 4.10266 11.3489 4.10266C11.3538 4.10266 11.3588 4.10266 11.3638 4.10266C11.3688 4.10266 11.3737 4.10266 11.3787 4.10266C11.3837 4.10266 11.3886 4.10266 11.3936 4.10266C11.3986 4.10266 11.4035 4.10266 11.4085 4.10266C11.4134 4.10266 11.4184 4.10266 11.4234 4.10266C11.4283 4.10266 11.4333 4.10266 11.4382 4.10266C11.4432 4.10266 11.4481 4.10266 11.4531 4.10266C11.4581 4.10266 11.463 4.10266 11.468 4.10266C11.4729 4.10266 11.4779 4.10266 11.4828 4.10266C11.4878 4.10266 11.4927 4.10266 11.4977 4.10266C11.5026 4.10266 11.5075 4.10266 11.5125 4.10266C11.5174 4.10266 11.5224 4.10266 11.5273 4.10266C11.5323 4.10266 11.5372 4.10266 11.5421 4.10266C11.5471 4.10266 11.552 4.10266 11.557 4.10266C11.5619 4.10266 11.5668 4.10266 11.5718 4.10266C11.5767 4.10266 11.5816 4.10266 11.5866 4.10266C11.5915 4.10266 11.5964 4.10266 11.6014 4.10266C11.6063 4.10266 11.6112 4.10266 11.6162 4.10266C11.6211 4.10266 11.626 4.10266 11.631 4.10266C11.6359 4.10266 11.6408 4.10266 11.6457 4.10266C11.6507 4.10266 11.6556 4.10266 11.6605 4.10266C11.6654 4.10266 11.6704 4.10266 11.6753 4.10266C11.6802 4.10266 11.6851 4.10266 11.6901 4.10266C11.695 4.10266 11.6999 4.10266 11.7048 4.10266C11.7097 4.10266 11.7146 4.10266 11.7196 4.10266C11.7245 4.10266 11.7294 4.10266 11.7343 4.10266C11.7392 4.10266 11.7441 4.10266 11.7491 4.10266C11.754 4.10266 11.7589 4.10266 11.7638 4.10266C11.7687 4.10266 11.7736 4.10266 11.7785 4.10266C11.7834 4.10266 11.7884 4.10266 11.7933 4.10266C11.7982 4.10266 11.8031 4.10266 11.808 4.10266C11.8129 4.10266 11.8178 4.10266 11.8227 4.10266C11.8276 4.10266 11.8325 4.10266 11.8374 4.10266C11.8423 4.10266 11.8472 4.10266 11.8521 4.10266C11.857 4.10266 11.8619 4.10266 11.8668 4.10266C11.8718 4.10266 11.8767 4.10266 11.8816 4.10266C11.8865 4.10266 11.8914 4.10266 11.8963 4.10266C11.9012 4.10266 11.9061 4.10266 11.911 4.10266C11.9159 4.10266 11.9208 4.10266 11.9256 4.10266C11.9305 4.10266 11.9354 4.10266 11.9403 4.10266C11.9452 4.10266 11.9501 4.10266 11.955 4.10266C11.9599 4.10266 11.9648 4.10266 11.9697 4.10266C11.9746 4.10266 11.9795 4.10266 11.9844 4.10266C11.9893 4.10266 11.9942 4.10266 11.9991 4.10266C12.004 4.10266 12.0089 4.10266 12.0138 4.10266C12.0186 4.10266 12.0235 4.10266 12.0284 4.10266C12.0333 4.10266 12.0382 4.10266 12.0431 4.10266C12.048 4.10266 12.0529 4.10266 12.0578 4.10266C12.0627 4.10266 12.0676 4.10266 12.0724 4.10266C12.0773 4.10266 12.0822 4.10266 12.0871 4.10266C12.092 4.10266 12.0969 4.10266 12.1018 4.10266C12.1067 4.10266 12.1115 4.10266 12.1164 4.10266C12.1213 4.10266 12.1262 4.10266 12.1311 4.10266C12.136 4.10266 12.1409 4.10266 12.1458 4.10266C12.1506 4.10266 12.1555 4.10266 12.1604 4.10266C12.1653 4.10266 12.1702 4.10266 12.1751 4.10266C12.18 4.10266 12.1848 4.10266 12.1897 4.10266C12.1946 4.10266 12.1995 4.10266 12.2044 4.10266C12.2093 4.10266 12.2141 4.10266 12.219 4.10266C12.2239 4.10266 12.2288 4.10266 12.2337 4.10266C12.2386 4.10266 12.2435 4.10266 12.2483 4.10266C12.2532 4.10266 12.2581 4.10266 12.263 4.10266C12.2679 4.10266 12.2728 4.10266 12.2776 4.10266C12.2825 4.10266 12.2874 4.10266 12.2923 4.10266C12.2972 4.10266 12.3021 4.10266 12.3069 4.10266C12.3118 4.10266 12.3167 4.10266 12.3216 4.10266C12.3265 4.10266 12.3314 4.10266 12.3362 4.10266C12.3411 4.10266 12.346 4.10266 12.3509 4.10266C12.3558 4.10266 12.3607 4.10266 12.3655 4.10266C12.3704 4.10266 12.3753 4.10266 12.3802 4.10266C12.3851 4.10266 12.39 4.10266 12.3948 4.10266C12.3997 4.10266 12.4046 4.10266 12.4095 4.10266C12.4144 4.10266 12.4193 4.10266 12.4242 4.10266C12.429 4.10266 12.4339 4.10266 12.4388 4.10266C12.4437 4.10266 12.4486 4.10266 12.4535 4.10266C12.4584 4.10266 12.4632 4.10266 12.4681 4.10266C12.473 4.10266 12.4779 4.10266 12.4828 4.10266C12.4877 4.10266 12.4926 4.10266 12.4974 4.10266C12.5023 4.10266 12.5072 4.10266 12.5121 4.10266C12.517 4.10266 12.5219 4.10266 12.5268 4.10266C12.5317 4.10266 12.5366 4.10266 12.5414 4.10266C12.5463 4.10266 12.5512 4.10266 12.5561 4.10266C12.561 4.10266 12.5659 4.10266 12.5708 4.10266C12.5757 4.10266 12.5806 4.10266 12.5855 4.10266C12.5903 4.10266 12.5952 4.10266 12.6001 4.10266C12.605 4.10266 12.6099 4.10266 12.6148 4.10266C12.6197 4.10266 12.6246 4.10266 12.6295 4.10266C12.6344 4.10266 12.6393 4.10266 12.6442 4.10266C12.6491 4.10266 12.654 4.10266 12.6589 4.10266C12.6637 4.10266 12.6686 4.10266 12.6735 4.10266C12.6784 4.10266 12.6833 4.10266 12.6882 4.10266C12.6931 4.10266 12.698 4.10266 12.7029 4.10266C12.7078 4.10266 12.7127 4.10266 12.7176 4.10266C12.7225 4.10266 12.7274 4.10266 12.7323 4.10266C12.7372 4.10266 12.7421 4.10266 12.747 4.10266C12.7519 4.10266 12.7568 4.10266 12.7617 4.10266C12.7666 4.10266 12.7716 4.10266 12.7765 4.10266C12.7814 4.10266 12.7863 4.10266 12.7912 4.10266C12.7961 4.10266 12.801 4.10266 12.8059 4.10266C12.8108 4.10266 12.8157 4.10266 12.8206 4.10266C12.8255 4.10266 12.8304 4.10266 12.8354 4.10266C12.8403 4.10266 12.8452 4.10266 12.8501 4.10266C12.855 4.10266 12.8599 4.10266 12.8648 4.10266C12.8697 4.10266 12.8747 4.10266 12.8796 4.10266C12.8845 4.10266 12.8894 4.10266 12.8943 4.10266C12.8992 4.10266 12.9042 4.10266 12.9091 4.10266C12.914 4.10266 12.9189 4.10266 12.9238 4.10266C12.9288 4.10266 12.9337 4.10266 12.9386 4.10266C12.9435 4.10266 12.9484 4.10266 12.9534 4.10266C12.9583 4.10266 12.9632 4.10266 12.9681 4.10266C12.9731 4.10266 12.978 4.10266 12.9829 4.10266C12.9879 4.10266 12.9928 4.10266 12.9977 4.10266C13.0026 4.10266 13.0076 4.10266 13.0125 4.10266C13.0174 4.10266 13.0224 4.10266 13.0273 4.10266C13.0322 4.10266 13.0372 4.10266 13.0421 4.10266C13.047 4.10266 13.052 4.10266 13.0569 4.10266C13.0619 4.10266 13.0668 4.10266 13.0717 4.10266C13.0767 4.10266 13.0816 4.10266 13.0866 4.10266C13.0915 4.10266 13.0964 4.10266 13.1014 4.10266C13.1063 4.10266 13.1113 4.10266 13.1162 4.10266C13.1212 4.10266 13.1261 4.10266 13.1311 4.10266C13.136 4.10266 13.141 4.10266 13.1459 4.10266C13.1509 4.10266 13.1558 4.10266 13.1608 4.10266C13.1657 4.10266 13.1707 4.10266 13.1756 4.10266C13.1806 4.10266 13.1856 4.10266 13.1905 4.10266C13.1955 4.10266 13.2004 4.10266 13.2054 4.10266C13.2104 4.10266 13.2153 4.10266 13.2203 4.10266C13.2253 4.10266 13.2302 4.10266 13.2352 4.10266C13.2402 4.10266 13.2451 4.10266 13.2501 4.10266C13.2551 4.10266 13.26 4.10266 13.265 4.10266C13.27 4.10266 13.275 4.10266 13.2799 4.10266C13.2849 4.10266 13.2899 4.10266 13.2949 4.10266C13.2998 4.10266 13.3048 4.10266 13.3098 4.10266C13.3148 4.10266 13.3198 4.10266 13.3247 4.10266C13.3297 4.10266 13.3347 4.10266 13.3397 4.10266C13.3447 4.10266 13.3497 4.10266 13.3547 4.10266C13.3596 4.10266 13.3646 4.10266 13.3696 4.10266C13.3746 4.10266 13.3796 4.10266 13.3846 4.10266C13.3896 4.10266 13.3946 4.10266 13.3996 4.10266C13.4046 4.10266 13.4096 4.10266 13.4146 4.10266C13.4196 4.10266 13.4246 4.10266 13.4296 4.10266C13.4346 4.10266 13.4396 4.10266 13.4446 4.10266C13.4496 4.10266 13.4547 4.10266 13.4597 4.10266C13.4647 4.10266 13.4697 4.10266 13.4747 4.10266C13.4797 4.10266 13.4847 4.10266 13.4897 4.10266C13.4948 4.10266 13.4998 4.10266 13.5048 4.10266C13.5098 4.10266 13.5149 4.10266 13.5199 4.10266C13.5249 4.10266 13.5299 4.10266 13.535 4.10266C13.54 4.10266 13.545 4.10266 13.55 4.10266C13.5551 4.10266 13.5601 4.10266 13.5651 4.10266C13.5702 4.10266 13.5752 4.10266 13.5803 4.10266C13.5853 4.10266 13.5903 4.10266 13.5954 4.10266C13.6004 4.10266 13.6055 4.10266 13.6105 4.10266C13.6156 4.10266 13.6206 4.10266 13.6257 4.10266C13.6307 4.10266 13.6358 4.10266 13.6408 4.10266C13.6459 4.10266 13.6509 4.10266 13.656 4.10266C13.661 4.10266 13.6661 4.10266 13.6712 4.10266C13.6762 4.10266 13.6813 4.10266 13.6863 4.10266C13.6914 4.10266 13.6965 4.10266 13.7015 4.10266C13.7066 4.10266 13.7117 4.10266 13.7168 4.10266C13.7218 4.10266 13.7269 4.10266 13.732 4.10266C13.7371 4.10266 13.7421 4.10266 13.7472 4.10266C13.7523 4.10266 13.7574 4.10266 13.7625 4.10266C13.7676 4.10266 13.7726 4.10266 13.7777 4.10266C13.7828 4.10266 13.7879 4.10266 13.793 4.10266C13.7981 4.10266 13.8032 4.10266 13.8083 4.10266C13.8134 4.10266 13.8185 4.10266 13.8236 4.10266C13.8287 4.10266 13.8338 4.10266 13.8389 4.10266C13.844 4.10266 13.8491 4.10266 13.8542 4.10266C13.8593 4.10266 13.8644 4.10266 13.8696 4.10266C13.8747 4.10266 13.8798 4.10266 13.8849 4.10266C13.89 4.10266 13.8952 4.10266 13.9003 4.10266C13.9054 4.10266 13.9105 4.10266 13.9157 4.10266C13.9208 4.10266 13.9259 4.10266 13.9311 4.10266C13.9362 4.10266 13.9413 4.10266 13.9465 4.10266C13.9516 4.10266 13.9567 4.10266 13.9619 4.10266C13.967 4.10266 13.9722 4.10266 13.9773 4.10266C13.9825 4.10266 13.9876 4.10266 13.9928 4.10266C13.9979 4.10266 14.0031 4.10266 14.0082 4.10266C14.0134 4.10266 14.0185 4.10266 14.0237 4.10266C14.0289 4.10266 14.034 4.10266 14.0392 4.10266C14.0443 4.10266 14.0495 4.10266 14.0547 4.10266C14.0599 4.10266 14.065 4.10266 14.0702 4.10266C14.0754 4.10266 14.0806 4.10266 14.0857 4.10266C14.0909 4.10266 14.0961 4.10266 14.1013 4.10266C14.1065 4.10266 14.1117 4.10266 14.1169 4.10266C14.122 4.10266 14.1272 4.10266 14.1324 4.10266C14.1376 4.10266 14.1428 4.10266 14.148 4.10266C14.1532 4.10266 14.1584 4.10266 14.1636 4.10266C14.1688 4.10266 14.1741 4.10266 14.1793 4.10266C14.1845 4.10266 14.1897 4.10266 14.1949 4.10266C14.2001 4.10266 14.2053 4.10266 14.2106 4.10266C14.2158 4.10266 14.221 4.10266 14.2262 4.10266C14.2315 4.10266 14.2367 4.10266 14.2419 4.10266C14.2472 4.10266 14.2524 4.10266 14.2576 4.10266C14.2629 4.10266 14.2681 4.10266 14.2734 4.10266C14.2786 4.10266 14.2839 4.10266 14.2891 4.10266C14.2944 4.10266 14.2996 4.10266 14.3049 4.10266C14.3101 4.10266 14.3154 4.10266 14.3206 4.10266C14.3259 4.10266 14.3312 4.10266 14.3364 4.10266C14.3417 4.10266 14.347 4.10266 14.3522 4.10266C14.3575 4.10266 14.3628 4.10266 14.368 4.10266C14.3733 4.10266 14.3786 4.10266 14.3839 4.10266C14.3892 4.10266 14.3945 4.10266 14.3997 4.10266C14.405 4.10266 14.4103 4.10266 14.4156 4.10266C14.4209 4.10266 14.4262 4.10266 14.4315 4.10266C14.4368 4.10266 14.4421 4.10266 14.4474 4.10266C14.4527 4.10266 14.458 4.10266 14.4634 4.10266C14.4687 4.10266 14.474 4.10266 14.4793 4.10266C14.4846 4.10266 14.4899 4.10266 14.4953 4.10266C14.5006 4.10266 14.5059 4.10266 14.5113 4.10266C14.5166 4.10266 14.5219 4.10266 14.5273 4.10266C14.5326 4.10266 14.5379 4.10266 14.5433 4.10266C14.5486 4.10266 14.554 4.10266 14.5593 4.10266C14.5647 4.10266 14.57 4.10266 14.5754 4.10266C14.5807 4.10266 14.5861 4.10266 14.5914 4.10266C14.5968 4.10266 14.6022 4.10266 14.6075 4.10266C14.6129 4.10266 14.6183 4.10266 14.6237 4.10266C14.629 4.10266 14.6344 4.10266 14.6398 4.10266C14.6452 4.10266 14.6506 4.10266 14.6559 4.10266C14.6613 4.10266 14.6667 4.10266 14.6721 4.10266C14.6775 4.10266 14.6829 4.10266 14.6883 4.10266C14.6937 4.10266 14.6991 4.10266 14.7045 4.10266C14.7099 4.10266 14.7153 4.10266 14.7207 4.10266C14.7262 4.10266 14.7316 4.10266 14.737 4.10266C14.7424 4.10266 14.7478 4.10266 14.7533 4.10266C14.7587 4.10266 14.7641 4.10266 14.7696 4.10266C14.775 4.10266 14.7804 4.10266 14.7859 4.10266C14.7913 4.10266 14.7968 4.10266 14.8022 4.10266C14.8077 4.10266 14.8131 4.10266 14.8186 4.10266C14.824 4.10266 14.8295 4.10266 14.8349 4.10266C14.8404 4.10266 14.8459 4.10266 14.8513 4.10266C14.8568 4.10266 14.8623 4.10266 14.8678 4.10266C14.8732 4.10266 14.8787 4.10266 14.8842 4.10266C14.8897 4.10266 14.8952 4.10266 14.9006 4.10266C14.9061 4.10266 14.9116 4.10266 14.9171 4.10266C14.9226 4.10266 14.9281 4.10266 14.9336 4.10266C14.9391 4.10266 14.9446 4.10266 14.9502 4.10266C14.9557 4.10266 14.9612 4.10266 14.9667 4.10266C14.9722 4.10266 14.9777 4.10266 14.9833 4.10266C14.9888 4.10266 14.9943 4.10266 14.9999 4.10266C15.0054 4.10266 15.0109 4.10266 15.0165 4.10266C15.022 4.10266 15.0276 4.10266 15.0331 4.10266C15.0386 4.10266 15.0442 4.10266 15.0498 4.10266C15.0553 4.10266 15.0609 4.10266 15.0664 4.10266C15.072 4.10266 15.0776 4.10266 15.0831 4.10266C15.0887 4.10266 15.0943 4.10266 15.0999 4.10266C15.1054 4.10266 15.111 4.10266 15.1166 4.10266C15.1222 4.10266 15.1278 4.10266 15.1334 4.10266C15.139 4.10266 15.1446 4.10266 15.1502 4.10266C15.1558 4.10266 15.1614 4.10266 15.167 4.10266C15.1726 4.10266 15.1782 4.10266 15.1838 4.10266C15.1894 4.10266 15.1951 4.10266 15.2007 4.10266C15.2063 4.10266 15.2119 4.10266 15.2176 4.10266C15.2232 4.10266 15.2288 4.10266 15.2345 4.10266C15.2401 4.10266 15.2458 4.10266 15.2514 4.10266C15.2571 4.10266 15.2627 4.10266 15.2684 4.10266C15.274 4.10266 15.2797 4.10266 15.2854 4.10266C15.291 4.10266 15.2967 4.10266 15.3024 4.10266C15.308 4.10266 15.3137 4.10266 15.3194 4.10266C15.3251 4.10266 15.3308 4.10266 15.3365 4.10266C15.3421 4.10266 15.3478 4.10266 15.3535 4.10266C15.3592 4.10266 15.3649 4.10266 15.3706 4.10266C15.3764 4.10266 15.3821 4.10266 15.3878 4.10266C15.3935 4.10266 15.3992 4.10266 15.4049 4.10266C15.4107 4.10266 15.4164 4.10266 15.4221 4.10266C15.4278 4.10266 15.4336 4.10266 15.4393 4.10266C15.4451 4.10266 15.4508 4.10266 15.4566 4.10266C15.4623 4.10266 15.4681 4.10266 15.4738 4.10266C15.4796 4.10266 15.4853 4.10266 15.4911 4.10266C15.4969 4.10266 15.5026 4.10266 15.5084 4.10266C15.5142 4.10266 15.52 4.10266 15.5257 4.10266C15.5315 4.10266 15.5373 4.10266 15.5431 4.10266C15.5489 4.10266 15.5547 4.10266 15.5605 4.10266C15.5663 4.10266 15.5721 4.10266 15.5779 4.10266C15.5837 4.10266 15.5895 4.10266 15.5953 4.10266C15.6012 4.10266 15.607 4.10266 15.6128 4.10266C15.6186 4.10266 15.6245 4.10266 15.6303 4.10266C15.6361 4.10266 15.642 4.10266 15.6478 4.10266C15.6537 4.10266 15.6595 4.10266 15.6654 4.10266C15.6712 4.10266 15.6771 4.10266 15.6829 4.10266C15.6888 4.10266 15.6947 4.10266 15.7005 4.10266C15.7064 4.10266 15.7123 4.10266 15.7182 4.10266C15.724 4.10266 15.7299 4.10266 15.7358 4.10266C15.7417 4.10266 15.7476 4.10266 15.7535 4.10266C15.7594 4.10266 15.7653 4.10266 15.7712 4.10266C15.7771 4.10266 15.783 4.10266 15.7889 4.10266C15.7949 4.10266 15.8008 4.10266 15.8067 4.10266C15.8126 4.10266 15.8186 4.10266 15.8245 4.10266C15.8304 4.10266 15.8364 4.10266 15.8423 4.10266C15.8483 4.10266 15.8542 4.10266 15.8602 4.10266C15.8661 4.10266 15.8721 4.10266 15.8781 4.10266C15.884 4.10266 15.89 4.10266 15.896 4.10266C15.9019 4.10266 15.9079 4.10266 15.9139 4.10266C15.9199 4.10266 15.9259 4.10266 15.9319 4.10266C15.9379 4.10266 15.9439 4.10266 15.9499 4.10266C15.9559 4.10266 15.9619 4.10266 15.9679 4.10266C15.9739 4.10266 15.9799 4.10266 15.9859 4.10266C15.992 4.10266 15.998 4.10266 16.004 4.10266C16.0101 4.10266 16.0161 4.10266 16.0221 4.10266C16.0282 4.10266 16.0342 4.10266 16.0403 4.10266C16.0463 4.10266 16.0524 4.10266 16.0584 4.10266C16.0645 4.10266 16.0706 4.10266 16.0766 4.10266C16.0827 4.10266 16.0888 4.10266 16.0949 4.10266C16.101 4.10266 16.107 4.10266 16.1131 4.10266C16.1192 4.10266 16.1253 4.10266 16.1314 4.10266C16.1375 4.10266 16.1436 4.10266 16.1498 4.10266C16.1559 4.10266 16.162 4.10266 16.1681 4.10266C16.1742 4.10266 16.1804 4.10266 16.1865 4.10266C16.1926 4.10266 16.1988 4.10266 16.2049 4.10266C16.211 4.10266 16.2172 4.10266 16.2233 4.10266C16.2295 4.10266 16.2357 4.10266 16.2418 4.10266C16.248 4.10266 16.2541 4.10266 16.2603 4.10266C16.2665 4.10266 16.2727 4.10266 16.2789 4.10266C16.285 4.10266 16.2912 4.10266 16.2974 4.10266C16.3036 4.10266 16.3098 4.10266 16.316 4.10266C16.3222 4.10266 16.3284 4.10266 16.3347 4.10266C16.3409 4.10266 16.3471 4.10266 16.3533 4.10266C16.3595 4.10266 16.3658 4.10266 16.372 4.10266C16.3783 4.10266 16.3845 4.10266 16.3907 4.10266C16.397 4.10266 16.4032 4.10266 16.4095 4.10266V3.58984V3.07702C16.4032 3.07702 16.397 3.07702 16.3907 3.07702C16.3845 3.07702 16.3783 3.07702 16.372 3.07702C16.3658 3.07702 16.3595 3.07702 16.3533 3.07702C16.3471 3.07702 16.3409 3.07702 16.3347 3.07702C16.3284 3.07702 16.3222 3.07702 16.316 3.07702C16.3098 3.07702 16.3036 3.07702 16.2974 3.07702C16.2912 3.07702 16.285 3.07702 16.2789 3.07702C16.2727 3.07702 16.2665 3.07702 16.2603 3.07702C16.2541 3.07702 16.248 3.07702 16.2418 3.07702C16.2357 3.07702 16.2295 3.07702 16.2233 3.07702C16.2172 3.07702 16.211 3.07702 16.2049 3.07702C16.1988 3.07702 16.1926 3.07702 16.1865 3.07702C16.1804 3.07702 16.1742 3.07702 16.1681 3.07702C16.162 3.07702 16.1559 3.07702 16.1498 3.07702C16.1436 3.07702 16.1375 3.07702 16.1314 3.07702C16.1253 3.07702 16.1192 3.07702 16.1131 3.07702C16.107 3.07702 16.101 3.07702 16.0949 3.07702C16.0888 3.07702 16.0827 3.07702 16.0766 3.07702C16.0706 3.07702 16.0645 3.07702 16.0584 3.07702C16.0524 3.07702 16.0463 3.07702 16.0403 3.07702C16.0342 3.07702 16.0282 3.07702 16.0221 3.07702C16.0161 3.07702 16.0101 3.07702 16.004 3.07702C15.998 3.07702 15.992 3.07702 15.9859 3.07702C15.9799 3.07702 15.9739 3.07702 15.9679 3.07702C15.9619 3.07702 15.9559 3.07702 15.9499 3.07702C15.9439 3.07702 15.9379 3.07702 15.9319 3.07702C15.9259 3.07702 15.9199 3.07702 15.9139 3.07702C15.9079 3.07702 15.9019 3.07702 15.896 3.07702C15.89 3.07702 15.884 3.07702 15.8781 3.07702C15.8721 3.07702 15.8661 3.07702 15.8602 3.07702C15.8542 3.07702 15.8483 3.07702 15.8423 3.07702C15.8364 3.07702 15.8304 3.07702 15.8245 3.07702C15.8186 3.07702 15.8126 3.07702 15.8067 3.07702C15.8008 3.07702 15.7949 3.07702 15.7889 3.07702C15.783 3.07702 15.7771 3.07702 15.7712 3.07702C15.7653 3.07702 15.7594 3.07702 15.7535 3.07702C15.7476 3.07702 15.7417 3.07702 15.7358 3.07702C15.7299 3.07702 15.724 3.07702 15.7182 3.07702C15.7123 3.07702 15.7064 3.07702 15.7005 3.07702C15.6947 3.07702 15.6888 3.07702 15.6829 3.07702C15.6771 3.07702 15.6712 3.07702 15.6654 3.07702C15.6595 3.07702 15.6537 3.07702 15.6478 3.07702C15.642 3.07702 15.6361 3.07702 15.6303 3.07702C15.6245 3.07702 15.6186 3.07702 15.6128 3.07702C15.607 3.07702 15.6012 3.07702 15.5953 3.07702C15.5895 3.07702 15.5837 3.07702 15.5779 3.07702C15.5721 3.07702 15.5663 3.07702 15.5605 3.07702C15.5547 3.07702 15.5489 3.07702 15.5431 3.07702C15.5373 3.07702 15.5315 3.07702 15.5257 3.07702C15.52 3.07702 15.5142 3.07702 15.5084 3.07702C15.5026 3.07702 15.4969 3.07702 15.4911 3.07702C15.4853 3.07702 15.4796 3.07702 15.4738 3.07702C15.4681 3.07702 15.4623 3.07702 15.4566 3.07702C15.4508 3.07702 15.4451 3.07702 15.4393 3.07702C15.4336 3.07702 15.4278 3.07702 15.4221 3.07702C15.4164 3.07702 15.4107 3.07702 15.4049 3.07702C15.3992 3.07702 15.3935 3.07702 15.3878 3.07702C15.3821 3.07702 15.3764 3.07702 15.3706 3.07702C15.3649 3.07702 15.3592 3.07702 15.3535 3.07702C15.3478 3.07702 15.3421 3.07702 15.3365 3.07702C15.3308 3.07702 15.3251 3.07702 15.3194 3.07702C15.3137 3.07702 15.308 3.07702 15.3024 3.07702C15.2967 3.07702 15.291 3.07702 15.2854 3.07702C15.2797 3.07702 15.274 3.07702 15.2684 3.07702C15.2627 3.07702 15.2571 3.07702 15.2514 3.07702C15.2458 3.07702 15.2401 3.07702 15.2345 3.07702C15.2288 3.07702 15.2232 3.07702 15.2176 3.07702C15.2119 3.07702 15.2063 3.07702 15.2007 3.07702C15.1951 3.07702 15.1894 3.07702 15.1838 3.07702C15.1782 3.07702 15.1726 3.07702 15.167 3.07702C15.1614 3.07702 15.1558 3.07702 15.1502 3.07702C15.1446 3.07702 15.139 3.07702 15.1334 3.07702C15.1278 3.07702 15.1222 3.07702 15.1166 3.07702C15.111 3.07702 15.1054 3.07702 15.0999 3.07702C15.0943 3.07702 15.0887 3.07702 15.0831 3.07702C15.0776 3.07702 15.072 3.07702 15.0664 3.07702C15.0609 3.07702 15.0553 3.07702 15.0498 3.07702C15.0442 3.07702 15.0386 3.07702 15.0331 3.07702C15.0276 3.07702 15.022 3.07702 15.0165 3.07702C15.0109 3.07702 15.0054 3.07702 14.9999 3.07702C14.9943 3.07702 14.9888 3.07702 14.9833 3.07702C14.9777 3.07702 14.9722 3.07702 14.9667 3.07702C14.9612 3.07702 14.9557 3.07702 14.9502 3.07702C14.9446 3.07702 14.9391 3.07702 14.9336 3.07702C14.9281 3.07702 14.9226 3.07702 14.9171 3.07702C14.9116 3.07702 14.9061 3.07702 14.9006 3.07702C14.8952 3.07702 14.8897 3.07702 14.8842 3.07702C14.8787 3.07702 14.8732 3.07702 14.8678 3.07702C14.8623 3.07702 14.8568 3.07702 14.8513 3.07702C14.8459 3.07702 14.8404 3.07702 14.8349 3.07702C14.8295 3.07702 14.824 3.07702 14.8186 3.07702C14.8131 3.07702 14.8077 3.07702 14.8022 3.07702C14.7968 3.07702 14.7913 3.07702 14.7859 3.07702C14.7804 3.07702 14.775 3.07702 14.7696 3.07702C14.7641 3.07702 14.7587 3.07702 14.7533 3.07702C14.7478 3.07702 14.7424 3.07702 14.737 3.07702C14.7316 3.07702 14.7262 3.07702 14.7207 3.07702C14.7153 3.07702 14.7099 3.07702 14.7045 3.07702C14.6991 3.07702 14.6937 3.07702 14.6883 3.07702C14.6829 3.07702 14.6775 3.07702 14.6721 3.07702C14.6667 3.07702 14.6613 3.07702 14.6559 3.07702C14.6506 3.07702 14.6452 3.07702 14.6398 3.07702C14.6344 3.07702 14.629 3.07702 14.6237 3.07702C14.6183 3.07702 14.6129 3.07702 14.6075 3.07702C14.6022 3.07702 14.5968 3.07702 14.5914 3.07702C14.5861 3.07702 14.5807 3.07702 14.5754 3.07702C14.57 3.07702 14.5647 3.07702 14.5593 3.07702C14.554 3.07702 14.5486 3.07702 14.5433 3.07702C14.5379 3.07702 14.5326 3.07702 14.5273 3.07702C14.5219 3.07702 14.5166 3.07702 14.5113 3.07702C14.5059 3.07702 14.5006 3.07702 14.4953 3.07702C14.4899 3.07702 14.4846 3.07702 14.4793 3.07702C14.474 3.07702 14.4687 3.07702 14.4634 3.07702C14.458 3.07702 14.4527 3.07702 14.4474 3.07702C14.4421 3.07702 14.4368 3.07702 14.4315 3.07702C14.4262 3.07702 14.4209 3.07702 14.4156 3.07702C14.4103 3.07702 14.405 3.07702 14.3997 3.07702C14.3945 3.07702 14.3892 3.07702 14.3839 3.07702C14.3786 3.07702 14.3733 3.07702 14.368 3.07702C14.3628 3.07702 14.3575 3.07702 14.3522 3.07702C14.347 3.07702 14.3417 3.07702 14.3364 3.07702C14.3312 3.07702 14.3259 3.07702 14.3206 3.07702C14.3154 3.07702 14.3101 3.07702 14.3049 3.07702C14.2996 3.07702 14.2944 3.07702 14.2891 3.07702C14.2839 3.07702 14.2786 3.07702 14.2734 3.07702C14.2681 3.07702 14.2629 3.07702 14.2576 3.07702C14.2524 3.07702 14.2472 3.07702 14.2419 3.07702C14.2367 3.07702 14.2315 3.07702 14.2262 3.07702C14.221 3.07702 14.2158 3.07702 14.2106 3.07702C14.2053 3.07702 14.2001 3.07702 14.1949 3.07702C14.1897 3.07702 14.1845 3.07702 14.1793 3.07702C14.1741 3.07702 14.1688 3.07702 14.1636 3.07702C14.1584 3.07702 14.1532 3.07702 14.148 3.07702C14.1428 3.07702 14.1376 3.07702 14.1324 3.07702C14.1272 3.07702 14.122 3.07702 14.1169 3.07702C14.1117 3.07702 14.1065 3.07702 14.1013 3.07702C14.0961 3.07702 14.0909 3.07702 14.0857 3.07702C14.0806 3.07702 14.0754 3.07702 14.0702 3.07702C14.065 3.07702 14.0599 3.07702 14.0547 3.07702C14.0495 3.07702 14.0443 3.07702 14.0392 3.07702C14.034 3.07702 14.0289 3.07702 14.0237 3.07702C14.0185 3.07702 14.0134 3.07702 14.0082 3.07702C14.0031 3.07702 13.9979 3.07702 13.9928 3.07702C13.9876 3.07702 13.9825 3.07702 13.9773 3.07702C13.9722 3.07702 13.967 3.07702 13.9619 3.07702C13.9567 3.07702 13.9516 3.07702 13.9465 3.07702C13.9413 3.07702 13.9362 3.07702 13.9311 3.07702C13.9259 3.07702 13.9208 3.07702 13.9157 3.07702C13.9105 3.07702 13.9054 3.07702 13.9003 3.07702C13.8952 3.07702 13.89 3.07702 13.8849 3.07702C13.8798 3.07702 13.8747 3.07702 13.8696 3.07702C13.8644 3.07702 13.8593 3.07702 13.8542 3.07702C13.8491 3.07702 13.844 3.07702 13.8389 3.07702C13.8338 3.07702 13.8287 3.07702 13.8236 3.07702C13.8185 3.07702 13.8134 3.07702 13.8083 3.07702C13.8032 3.07702 13.7981 3.07702 13.793 3.07702C13.7879 3.07702 13.7828 3.07702 13.7777 3.07702C13.7726 3.07702 13.7676 3.07702 13.7625 3.07702C13.7574 3.07702 13.7523 3.07702 13.7472 3.07702C13.7421 3.07702 13.7371 3.07702 13.732 3.07702C13.7269 3.07702 13.7218 3.07702 13.7168 3.07702C13.7117 3.07702 13.7066 3.07702 13.7015 3.07702C13.6965 3.07702 13.6914 3.07702 13.6863 3.07702C13.6813 3.07702 13.6762 3.07702 13.6712 3.07702C13.6661 3.07702 13.661 3.07702 13.656 3.07702C13.6509 3.07702 13.6459 3.07702 13.6408 3.07702C13.6358 3.07702 13.6307 3.07702 13.6257 3.07702C13.6206 3.07702 13.6156 3.07702 13.6105 3.07702C13.6055 3.07702 13.6004 3.07702 13.5954 3.07702C13.5903 3.07702 13.5853 3.07702 13.5803 3.07702C13.5752 3.07702 13.5702 3.07702 13.5651 3.07702C13.5601 3.07702 13.5551 3.07702 13.55 3.07702C13.545 3.07702 13.54 3.07702 13.535 3.07702C13.5299 3.07702 13.5249 3.07702 13.5199 3.07702C13.5149 3.07702 13.5098 3.07702 13.5048 3.07702C13.4998 3.07702 13.4948 3.07702 13.4897 3.07702C13.4847 3.07702 13.4797 3.07702 13.4747 3.07702C13.4697 3.07702 13.4647 3.07702 13.4597 3.07702C13.4547 3.07702 13.4496 3.07702 13.4446 3.07702C13.4396 3.07702 13.4346 3.07702 13.4296 3.07702C13.4246 3.07702 13.4196 3.07702 13.4146 3.07702C13.4096 3.07702 13.4046 3.07702 13.3996 3.07702C13.3946 3.07702 13.3896 3.07702 13.3846 3.07702C13.3796 3.07702 13.3746 3.07702 13.3696 3.07702C13.3646 3.07702 13.3596 3.07702 13.3547 3.07702C13.3497 3.07702 13.3447 3.07702 13.3397 3.07702C13.3347 3.07702 13.3297 3.07702 13.3247 3.07702C13.3198 3.07702 13.3148 3.07702 13.3098 3.07702C13.3048 3.07702 13.2998 3.07702 13.2949 3.07702C13.2899 3.07702 13.2849 3.07702 13.2799 3.07702C13.275 3.07702 13.27 3.07702 13.265 3.07702C13.26 3.07702 13.2551 3.07702 13.2501 3.07702C13.2451 3.07702 13.2402 3.07702 13.2352 3.07702C13.2302 3.07702 13.2253 3.07702 13.2203 3.07702C13.2153 3.07702 13.2104 3.07702 13.2054 3.07702C13.2004 3.07702 13.1955 3.07702 13.1905 3.07702C13.1856 3.07702 13.1806 3.07702 13.1756 3.07702C13.1707 3.07702 13.1657 3.07702 13.1608 3.07702C13.1558 3.07702 13.1509 3.07702 13.1459 3.07702C13.141 3.07702 13.136 3.07702 13.1311 3.07702C13.1261 3.07702 13.1212 3.07702 13.1162 3.07702C13.1113 3.07702 13.1063 3.07702 13.1014 3.07702C13.0964 3.07702 13.0915 3.07702 13.0866 3.07702C13.0816 3.07702 13.0767 3.07702 13.0717 3.07702C13.0668 3.07702 13.0619 3.07702 13.0569 3.07702C13.052 3.07702 13.047 3.07702 13.0421 3.07702C13.0372 3.07702 13.0322 3.07702 13.0273 3.07702C13.0224 3.07702 13.0174 3.07702 13.0125 3.07702C13.0076 3.07702 13.0026 3.07702 12.9977 3.07702C12.9928 3.07702 12.9879 3.07702 12.9829 3.07702C12.978 3.07702 12.9731 3.07702 12.9681 3.07702C12.9632 3.07702 12.9583 3.07702 12.9534 3.07702C12.9484 3.07702 12.9435 3.07702 12.9386 3.07702C12.9337 3.07702 12.9288 3.07702 12.9238 3.07702C12.9189 3.07702 12.914 3.07702 12.9091 3.07702C12.9042 3.07702 12.8992 3.07702 12.8943 3.07702C12.8894 3.07702 12.8845 3.07702 12.8796 3.07702C12.8747 3.07702 12.8697 3.07702 12.8648 3.07702C12.8599 3.07702 12.855 3.07702 12.8501 3.07702C12.8452 3.07702 12.8403 3.07702 12.8354 3.07702C12.8304 3.07702 12.8255 3.07702 12.8206 3.07702C12.8157 3.07702 12.8108 3.07702 12.8059 3.07702C12.801 3.07702 12.7961 3.07702 12.7912 3.07702C12.7863 3.07702 12.7814 3.07702 12.7765 3.07702C12.7716 3.07702 12.7666 3.07702 12.7617 3.07702C12.7568 3.07702 12.7519 3.07702 12.747 3.07702C12.7421 3.07702 12.7372 3.07702 12.7323 3.07702C12.7274 3.07702 12.7225 3.07702 12.7176 3.07702C12.7127 3.07702 12.7078 3.07702 12.7029 3.07702C12.698 3.07702 12.6931 3.07702 12.6882 3.07702C12.6833 3.07702 12.6784 3.07702 12.6735 3.07702C12.6686 3.07702 12.6637 3.07702 12.6589 3.07702C12.654 3.07702 12.6491 3.07702 12.6442 3.07702C12.6393 3.07702 12.6344 3.07702 12.6295 3.07702C12.6246 3.07702 12.6197 3.07702 12.6148 3.07702C12.6099 3.07702 12.605 3.07702 12.6001 3.07702C12.5952 3.07702 12.5903 3.07702 12.5855 3.07702C12.5806 3.07702 12.5757 3.07702 12.5708 3.07702C12.5659 3.07702 12.561 3.07702 12.5561 3.07702C12.5512 3.07702 12.5463 3.07702 12.5414 3.07702C12.5366 3.07702 12.5317 3.07702 12.5268 3.07702C12.5219 3.07702 12.517 3.07702 12.5121 3.07702C12.5072 3.07702 12.5023 3.07702 12.4974 3.07702C12.4926 3.07702 12.4877 3.07702 12.4828 3.07702C12.4779 3.07702 12.473 3.07702 12.4681 3.07702C12.4632 3.07702 12.4584 3.07702 12.4535 3.07702C12.4486 3.07702 12.4437 3.07702 12.4388 3.07702C12.4339 3.07702 12.429 3.07702 12.4242 3.07702C12.4193 3.07702 12.4144 3.07702 12.4095 3.07702C12.4046 3.07702 12.3997 3.07702 12.3948 3.07702C12.39 3.07702 12.3851 3.07702 12.3802 3.07702C12.3753 3.07702 12.3704 3.07702 12.3655 3.07702C12.3607 3.07702 12.3558 3.07702 12.3509 3.07702C12.346 3.07702 12.3411 3.07702 12.3362 3.07702C12.3314 3.07702 12.3265 3.07702 12.3216 3.07702C12.3167 3.07702 12.3118 3.07702 12.3069 3.07702C12.3021 3.07702 12.2972 3.07702 12.2923 3.07702C12.2874 3.07702 12.2825 3.07702 12.2776 3.07702C12.2728 3.07702 12.2679 3.07702 12.263 3.07702C12.2581 3.07702 12.2532 3.07702 12.2483 3.07702C12.2435 3.07702 12.2386 3.07702 12.2337 3.07702C12.2288 3.07702 12.2239 3.07702 12.219 3.07702C12.2141 3.07702 12.2093 3.07702 12.2044 3.07702C12.1995 3.07702 12.1946 3.07702 12.1897 3.07702C12.1848 3.07702 12.18 3.07702 12.1751 3.07702C12.1702 3.07702 12.1653 3.07702 12.1604 3.07702C12.1555 3.07702 12.1506 3.07702 12.1458 3.07702C12.1409 3.07702 12.136 3.07702 12.1311 3.07702C12.1262 3.07702 12.1213 3.07702 12.1164 3.07702C12.1115 3.07702 12.1067 3.07702 12.1018 3.07702C12.0969 3.07702 12.092 3.07702 12.0871 3.07702C12.0822 3.07702 12.0773 3.07702 12.0724 3.07702C12.0676 3.07702 12.0627 3.07702 12.0578 3.07702C12.0529 3.07702 12.048 3.07702 12.0431 3.07702C12.0382 3.07702 12.0333 3.07702 12.0284 3.07702C12.0235 3.07702 12.0186 3.07702 12.0138 3.07702C12.0089 3.07702 12.004 3.07702 11.9991 3.07702C11.9942 3.07702 11.9893 3.07702 11.9844 3.07702C11.9795 3.07702 11.9746 3.07702 11.9697 3.07702C11.9648 3.07702 11.9599 3.07702 11.955 3.07702C11.9501 3.07702 11.9452 3.07702 11.9403 3.07702C11.9354 3.07702 11.9305 3.07702 11.9256 3.07702C11.9208 3.07702 11.9159 3.07702 11.911 3.07702C11.9061 3.07702 11.9012 3.07702 11.8963 3.07702C11.8914 3.07702 11.8865 3.07702 11.8816 3.07702C11.8767 3.07702 11.8718 3.07702 11.8668 3.07702C11.8619 3.07702 11.857 3.07702 11.8521 3.07702C11.8472 3.07702 11.8423 3.07702 11.8374 3.07702C11.8325 3.07702 11.8276 3.07702 11.8227 3.07702C11.8178 3.07702 11.8129 3.07702 11.808 3.07702C11.8031 3.07702 11.7982 3.07702 11.7933 3.07702C11.7884 3.07702 11.7834 3.07702 11.7785 3.07702C11.7736 3.07702 11.7687 3.07702 11.7638 3.07702C11.7589 3.07702 11.754 3.07702 11.7491 3.07702C11.7441 3.07702 11.7392 3.07702 11.7343 3.07702C11.7294 3.07702 11.7245 3.07702 11.7196 3.07702C11.7146 3.07702 11.7097 3.07702 11.7048 3.07702C11.6999 3.07702 11.695 3.07702 11.6901 3.07702C11.6851 3.07702 11.6802 3.07702 11.6753 3.07702C11.6704 3.07702 11.6654 3.07702 11.6605 3.07702C11.6556 3.07702 11.6507 3.07702 11.6457 3.07702C11.6408 3.07702 11.6359 3.07702 11.631 3.07702C11.626 3.07702 11.6211 3.07702 11.6162 3.07702C11.6112 3.07702 11.6063 3.07702 11.6014 3.07702C11.5964 3.07702 11.5915 3.07702 11.5866 3.07702C11.5816 3.07702 11.5767 3.07702 11.5718 3.07702C11.5668 3.07702 11.5619 3.07702 11.557 3.07702C11.552 3.07702 11.5471 3.07702 11.5421 3.07702C11.5372 3.07702 11.5323 3.07702 11.5273 3.07702C11.5224 3.07702 11.5174 3.07702 11.5125 3.07702C11.5075 3.07702 11.5026 3.07702 11.4977 3.07702C11.4927 3.07702 11.4878 3.07702 11.4828 3.07702C11.4779 3.07702 11.4729 3.07702 11.468 3.07702C11.463 3.07702 11.4581 3.07702 11.4531 3.07702C11.4481 3.07702 11.4432 3.07702 11.4382 3.07702C11.4333 3.07702 11.4283 3.07702 11.4234 3.07702C11.4184 3.07702 11.4134 3.07702 11.4085 3.07702C11.4035 3.07702 11.3986 3.07702 11.3936 3.07702C11.3886 3.07702 11.3837 3.07702 11.3787 3.07702C11.3737 3.07702 11.3688 3.07702 11.3638 3.07702C11.3588 3.07702 11.3538 3.07702 11.3489 3.07702C11.3439 3.07702 11.3389 3.07702 11.334 3.07702C11.329 3.07702 11.324 3.07702 11.319 3.07702C11.314 3.07702 11.3091 3.07702 11.3041 3.07702C11.2991 3.07702 11.2941 3.07702 11.2891 3.07702C11.2842 3.07702 11.2792 3.07702 11.2742 3.07702C11.2692 3.07702 11.2642 3.07702 11.2592 3.07702C11.2542 3.07702 11.2492 3.07702 11.2442 3.07702C11.2393 3.07702 11.2343 3.07702 11.2293 3.07702C11.2243 3.07702 11.2193 3.07702 11.2143 3.07702C11.2093 3.07702 11.2043 3.07702 11.1993 3.07702C11.1943 3.07702 11.1893 3.07702 11.1843 3.07702C11.1793 3.07702 11.1743 3.07702 11.1692 3.07702C11.1642 3.07702 11.1592 3.07702 11.1542 3.07702C11.1492 3.07702 11.1442 3.07702 11.1392 3.07702C11.1342 3.07702 11.1291 3.07702 11.1241 3.07702C11.1191 3.07702 11.1141 3.07702 11.1091 3.07702C11.1041 3.07702 11.099 3.07702 11.094 3.07702C11.089 3.07702 11.084 3.07702 11.0789 3.07702C11.0739 3.07702 11.0689 3.07702 11.0638 3.07702C11.0588 3.07702 11.0538 3.07702 11.0487 3.07702C11.0437 3.07702 11.0387 3.07702 11.0336 3.07702C11.0286 3.07702 11.0235 3.07702 11.0185 3.07702C11.0135 3.07702 11.0084 3.07702 11.0034 3.07702C10.9983 3.07702 10.9933 3.07702 10.9882 3.07702C10.9832 3.07702 10.9781 3.07702 10.9731 3.07702C10.968 3.07702 10.963 3.07702 10.9579 3.07702C10.9528 3.07702 10.9478 3.07702 10.9427 3.07702C10.9377 3.07702 10.9326 3.07702 10.9275 3.07702C10.9225 3.07702 10.9174 3.07702 10.9123 3.07702C10.9073 3.07702 10.9022 3.07702 10.8971 3.07702C10.8921 3.07702 10.887 3.07702 10.8819 3.07702C10.8768 3.07702 10.8717 3.07702 10.8667 3.07702C10.8616 3.07702 10.8565 3.07702 10.8514 3.07702C10.8463 3.07702 10.8412 3.07702 10.8362 3.07702C10.8311 3.07702 10.826 3.07702 10.8209 3.07702C10.8158 3.07702 10.8107 3.07702 10.8056 3.07702C10.8005 3.07702 10.7954 3.07702 10.7903 3.07702C10.7852 3.07702 10.7801 3.07702 10.775 3.07702C10.7699 3.07702 10.7648 3.07702 10.7597 3.07702C10.7545 3.07702 10.7494 3.07702 10.7443 3.07702C10.7392 3.07702 10.7341 3.07702 10.729 3.07702C10.7238 3.07702 10.7187 3.07702 10.7136 3.07702C10.7085 3.07702 10.7034 3.07702 10.6982 3.07702C10.6931 3.07702 10.688 3.07702 10.6828 3.07702C10.6777 3.07702 10.6726 3.07702 10.6674 3.07702C10.6623 3.07702 10.6571 3.07702 10.652 3.07702C10.6469 3.07702 10.6417 3.07702 10.6366 3.07702C10.6314 3.07702 10.6263 3.07702 10.6211 3.07702C10.616 3.07702 10.6108 3.07702 10.6057 3.07702C10.6005 3.07702 10.5953 3.07702 10.5902 3.07702C10.585 3.07702 10.5799 3.07702 10.5747 3.07702C10.5695 3.07702 10.5644 3.07702 10.5592 3.07702C10.554 3.07702 10.5488 3.07702 10.5437 3.07702C10.5385 3.07702 10.5333 3.07702 10.5281 3.07702C10.523 3.07702 10.5178 3.07702 10.5126 3.07702C10.5074 3.07702 10.5022 3.07702 10.497 3.07702C10.4918 3.07702 10.4866 3.07702 10.4814 3.07702C10.4762 3.07702 10.471 3.07702 10.4658 3.07702C10.4606 3.07702 10.4554 3.07702 10.4502 3.07702C10.445 3.07702 10.4398 3.07702 10.4346 3.07702C10.4294 3.07702 10.4242 3.07702 10.419 3.07702C10.4138 3.07702 10.4085 3.07702 10.4033 3.07702C10.3981 3.07702 10.3929 3.07702 10.3876 3.07702C10.3824 3.07702 10.3772 3.07702 10.3719 3.07702C10.3667 3.07702 10.3615 3.07702 10.3562 3.07702C10.351 3.07702 10.3458 3.07702 10.3405 3.07702C10.3353 3.07702 10.33 3.07702 10.3248 3.07702C10.3195 3.07702 10.3143 3.07702 10.309 3.07702C10.3038 3.07702 10.2985 3.07702 10.2933 3.07702C10.288 3.07702 10.2827 3.07702 10.2775 3.07702C10.2722 3.07702 10.2669 3.07702 10.2617 3.07702C10.2564 3.07702 10.2511 3.07702 10.2458 3.07702C10.2406 3.07702 10.2353 3.07702 10.23 3.07702C10.2247 3.07702 10.2194 3.07702 10.2141 3.07702C10.2088 3.07702 10.2036 3.07702 10.1983 3.07702C10.193 3.07702 10.1877 3.07702 10.1824 3.07702C10.1771 3.07702 10.1718 3.07702 10.1665 3.07702C10.1611 3.07702 10.1558 3.07702 10.1505 3.07702C10.1452 3.07702 10.1399 3.07702 10.1346 3.07702C10.1293 3.07702 10.1239 3.07702 10.1186 3.07702C10.1133 3.07702 10.108 3.07702 10.1026 3.07702C10.0973 3.07702 10.092 3.07702 10.0866 3.07702C10.0813 3.07702 10.076 3.07702 10.0706 3.07702C10.0653 3.07702 10.0599 3.07702 10.0546 3.07702C10.0492 3.07702 10.0439 3.07702 10.0385 3.07702C10.0332 3.07702 10.0278 3.07702 10.0224 3.07702C10.0171 3.07702 10.0117 3.07702 10.0063 3.07702C10.001 3.07702 9.9956 3.07702 9.99023 3.07702C9.98485 3.07702 9.97947 3.07702 9.97409 3.07702C9.96871 3.07702 9.96333 3.07702 9.95794 3.07702C9.95255 3.07702 9.94716 3.07702 9.94177 3.07702C9.93637 3.07702 9.93098 3.07702 9.92558 3.07702C9.92017 3.07702 9.91477 3.07702 9.90936 3.07702C9.90396 3.07702 9.89855 3.07702 9.89313 3.07702C9.88772 3.07702 9.8823 3.07702 9.87688 3.07702C9.87146 3.07702 9.86603 3.07702 9.86061 3.07702C9.85518 3.07702 9.84975 3.07702 9.84432 3.07702C9.83888 3.07702 9.83344 3.07702 9.828 3.07702C9.82256 3.07702 9.81712 3.07702 9.81167 3.07702C9.80622 3.07702 9.80077 3.07702 9.79532 3.07702C9.78986 3.07702 9.7844 3.07702 9.77894 3.07702C9.77348 3.07702 9.76801 3.07702 9.76255 3.07702C9.75708 3.07702 9.7516 3.07702 9.74613 3.07702C9.74065 3.07702 9.73517 3.07702 9.72969 3.07702C9.72421 3.07702 9.71872 3.07702 9.71323 3.07702C9.70774 3.07702 9.70225 3.07702 9.69675 3.07702C9.69126 3.07702 9.68575 3.07702 9.68025 3.07702C9.67475 3.07702 9.66924 3.07702 9.66373 3.07702C9.65822 3.07702 9.6527 3.07702 9.64718 3.07702C9.64166 3.07702 9.63614 3.07702 9.63061 3.07702C9.62509 3.07702 9.61956 3.07702 9.61403 3.07702C9.60849 3.07702 9.60295 3.07702 9.59741 3.07702C9.59187 3.07702 9.58633 3.07702 9.58078 3.07702C9.57523 3.07702 9.56968 3.07702 9.56412 3.07702C9.55857 3.07702 9.55301 3.07702 9.54745 3.07702C9.54188 3.07702 9.53631 3.07702 9.53074 3.07702C9.52517 3.07702 9.5196 3.07702 9.51402 3.07702C9.50844 3.07702 9.50286 3.07702 9.49727 3.07702C9.49169 3.07702 9.4861 3.07702 9.4805 3.07702C9.47491 3.07702 9.46931 3.07702 9.46371 3.07702C9.45811 3.07702 9.4525 3.07702 9.44689 3.07702C9.44128 3.07702 9.43567 3.07702 9.43005 3.07702C9.42444 3.07702 9.41882 3.07702 9.41319 3.07702C9.40757 3.07702 9.40194 3.07702 9.3963 3.07702C9.39067 3.07702 9.38503 3.07702 9.37939 3.07702C9.37375 3.07702 9.36811 3.07702 9.36246 3.07702C9.35681 3.07702 9.35116 3.07702 9.3455 3.07702C9.33984 3.07702 9.33418 3.07702 9.32852 3.07702C9.32285 3.07702 9.31718 3.07702 9.31151 3.07702C9.30584 3.07702 9.30016 3.07702 9.29448 3.07702C9.2888 3.07702 9.28311 3.07702 9.27742 3.07702C9.27173 3.07702 9.26604 3.07702 9.26034 3.07702C9.25464 3.07702 9.24894 3.07702 9.24324 3.07702C9.23753 3.07702 9.23182 3.07702 9.2261 3.07702C9.22039 3.07702 9.21467 3.07702 9.20895 3.07702C9.20323 3.07702 9.1975 3.07702 9.19177 3.07702C9.18604 3.07702 9.1803 3.07702 9.17456 3.07702C9.16882 3.07702 9.16308 3.07702 9.15733 3.07702C9.15158 3.07702 9.14583 3.07702 9.14007 3.07702C9.13432 3.07702 9.12856 3.07702 9.12279 3.07702C9.11703 3.07702 9.11126 3.07702 9.10548 3.07702C9.09971 3.07702 9.09393 3.07702 9.08815 3.07702C9.08237 3.07702 9.07658 3.07702 9.07079 3.07702C9.065 3.07702 9.0592 3.07702 9.0534 3.07702C9.0476 3.07702 9.0418 3.07702 9.03599 3.07702C9.03018 3.07702 9.02437 3.07702 9.01855 3.07702C9.01273 3.07702 9.00691 3.07702 9.00108 3.07702C8.99526 3.07702 8.98943 3.07702 8.98359 3.07702C8.97775 3.07702 8.97191 3.07702 8.96607 3.07702C8.96023 3.07702 8.95438 3.07702 8.94852 3.07702C8.94267 3.07702 8.93681 3.07702 8.93095 3.07702C8.92509 3.07702 8.91922 3.07702 8.91335 3.07702C8.90748 3.07702 8.9016 3.07702 8.89572 3.07702C8.88984 3.07702 8.88396 3.07702 8.87807 3.07702C8.87218 3.07702 8.86628 3.07702 8.86038 3.07702C8.85448 3.07702 8.84858 3.07702 8.84267 3.07702C8.83676 3.07702 8.83085 3.07702 8.82493 3.07702C8.81902 3.07702 8.81309 3.07702 8.80717 3.07702C8.80124 3.07702 8.79531 3.07702 8.78937 3.07702C8.78344 3.07702 8.7775 3.07702 8.77155 3.07702C8.7656 3.07702 8.75965 3.07702 8.7537 3.07702C8.74774 3.07702 8.74178 3.07702 8.73582 3.07702C8.72986 3.07702 8.72389 3.07702 8.71791 3.07702C8.71194 3.07702 8.70596 3.07702 8.69998 3.07702C8.69399 3.07702 8.688 3.07702 8.68201 3.07702C8.67602 3.07702 8.67002 3.07702 8.66402 3.07702C8.65801 3.07702 8.652 3.07702 8.64599 3.07702C8.63998 3.07702 8.63396 3.07702 8.62794 3.07702C8.62192 3.07702 8.61589 3.07702 8.60986 3.07702C8.60382 3.07702 8.59779 3.07702 8.59175 3.07702C8.5857 3.07702 8.57966 3.07702 8.5736 3.07702C8.56755 3.07702 8.5615 3.07702 8.55543 3.07702C8.54937 3.07702 8.5433 3.07702 8.53723 3.07702C8.53116 3.07702 8.52508 3.07702 8.519 3.07702C8.51292 3.07702 8.50683 3.07702 8.50074 3.07702C8.49465 3.07702 8.48855 3.07702 8.48245 3.07702C8.47635 3.07702 8.47024 3.07702 8.46413 3.07702C8.45802 3.07702 8.4519 3.07702 8.44578 3.07702C8.43966 3.07702 8.43353 3.07702 8.4274 3.07702C8.42126 3.07702 8.41513 3.07702 8.40898 3.07702C8.40284 3.07702 8.39669 3.07702 8.39054 3.07702C8.38439 3.07702 8.37823 3.07702 8.37206 3.07702C8.3659 3.07702 8.35973 3.07702 8.35356 3.07702C8.34738 3.07702 8.34121 3.07702 8.33502 3.07702C8.32884 3.07702 8.32265 3.07702 8.31645 3.07702C8.31026 3.07702 8.30406 3.07702 8.29785 3.07702C8.29165 3.07702 8.28544 3.07702 8.27922 3.07702C8.27301 3.07702 8.26678 3.07702 8.26056 3.07702C8.25433 3.07702 8.2481 3.07702 8.24186 3.07702C8.23563 3.07702 8.22938 3.07702 8.22314 3.07702C8.21689 3.07702 8.21064 3.07702 8.20438 3.07702V3.58984ZM21.5377 8.71805H21.0249V16.9232H21.5377H22.0505V8.71805H21.5377ZM16.4095 22.0514V21.5386H8.20438V22.0514V22.5642H16.4095V22.0514ZM3.07617 16.9232H3.58899V8.71805H3.07617H2.56335V16.9232H3.07617ZM8.20438 22.0514V21.5386C5.65537 21.5386 3.58899 19.4722 3.58899 16.9232H3.07617H2.56335C2.56335 20.0386 5.08892 22.5642 8.20438 22.5642V22.0514ZM21.5377 16.9232H21.0249C21.0249 19.4722 18.9585 21.5386 16.4095 21.5386V22.0514V22.5642C19.525 22.5642 22.0505 20.0386 22.0505 16.9232H21.5377ZM16.4095 3.58984V4.10266C18.9585 4.10266 21.0249 6.16904 21.0249 8.71805H21.5377H22.0505C22.0505 5.6026 19.525 3.07702 16.4095 3.07702V3.58984ZM4.41409 5.26369L4.03517 4.91815C3.12129 5.92033 2.56335 7.25462 2.56335 8.71805H3.07617H3.58899C3.58899 7.52016 4.04467 6.42989 4.79302 5.60923L4.41409 5.26369Z" fill="white"/>
<path d="M6.15234 8.7179H21.537" stroke="white" stroke-width="1.02564" stroke-linecap="round" stroke-linejoin="round"/>
<path d="M16.923 2.05127L16.923 5.12819" stroke="white" stroke-width="1.02564" stroke-linecap="round" stroke-linejoin="round"/>
<path d="M7.69251 2.05127L7.69251 5.12819" stroke="white" stroke-width="1.02564" stroke-linecap="round" stroke-linejoin="round"/>
<path d="M6.66602 12.8207H7.69166" stroke="white" stroke-width="1.02564" stroke-linecap="round" stroke-linejoin="round"/>
<path d="M11.7949 12.8207H12.8206" stroke="white" stroke-width="1.02564" stroke-linecap="round" stroke-linejoin="round"/>
<path d="M16.9219 12.8207H17.9475" stroke="white" stroke-width="1.02564" stroke-linecap="round" stroke-linejoin="round"/>
<path d="M6.66602 16.9232H7.69166" stroke="white" stroke-width="1.02564" stroke-linecap="round" stroke-linejoin="round"/>
<path d="M11.7949 16.9232H12.8206" stroke="white" stroke-width="1.02564" stroke-linecap="round" stroke-linejoin="round"/>
<path d="M16.9219 16.9232H17.9475" stroke="white" stroke-width="1.02564" stroke-linecap="round" stroke-linejoin="round"/>
</svg>
