<svg width="142" height="41" viewBox="0 0 142 41" fill="none" xmlns="http://www.w3.org/2000/svg">
<path fill-rule="evenodd" clip-rule="evenodd" d="M0 0H142V40H0V0Z" fill="#CC2229"/>
<path fill-rule="evenodd" clip-rule="evenodd" d="M21.7221 20.2253L26.6985 13.5903H37.0722V16.386H34.9913V27.7996H37.0722V30.5952H23.5945V27.7996H25.6754V20.4042L18.0119 30.5952L10.3253 20.4042V27.8033H12.4062V30.6026H4.95117V27.8033H7.00506V16.386H4.95117V13.5903H16.7186L21.7221 20.2253Z" fill="white"/>
<path d="M57.8397 13.7397L57.5695 15.9576C58.5578 14.3697 59.9863 13.5273 61.8626 13.4341V19.3683C60.6156 19.3683 59.7006 19.495 59.1176 19.7485C58.5346 20.0019 58.1756 20.3561 58.0405 20.8108C57.9053 21.2656 57.8397 22.3093 57.8397 23.9419V30.5992H51.041V13.7397H57.8397Z" fill="white"/>
<path d="M78.7788 22.4694H69.9764V26.1149C69.9764 26.8753 70.0498 27.3673 70.1965 27.5872C70.3432 27.8071 70.6212 27.919 71.0381 27.919C71.5555 27.919 71.8991 27.7736 72.0728 27.4791C72.2465 27.1884 72.3353 26.6218 72.3353 25.7831V23.5578H78.7827V24.8028C78.7827 25.8465 78.6978 26.6442 78.5202 27.2033C78.3464 27.7624 77.9411 28.3588 77.3002 28.9962C76.6593 29.6299 75.8486 30.107 74.8679 30.4239C73.8873 30.7407 72.6558 30.901 71.1732 30.901C69.6907 30.901 68.4669 30.7444 67.3705 30.4313C66.2702 30.1182 65.4131 29.6895 64.8031 29.1416C64.1931 28.5937 63.7684 27.9935 63.5329 27.3375C63.2974 26.6814 63.1777 25.7272 63.1777 24.471V19.5545C63.1777 18.0821 63.4403 16.9191 63.9692 16.0655C64.4981 15.2119 65.359 14.5633 66.5597 14.1086C67.7604 13.6538 69.1425 13.4302 70.7022 13.4302C72.6094 13.4302 74.1846 13.7023 75.4239 14.2502C76.6632 14.7982 77.5318 15.5213 78.0337 16.4234C78.5317 17.3254 78.7827 18.5928 78.7827 20.2291V22.4656L78.7788 22.4694ZM71.9608 19.7259V18.4921C71.9608 17.6199 71.8991 17.057 71.7755 16.8036C71.652 16.5501 71.401 16.4234 71.0188 16.4234C70.5478 16.4234 70.2544 16.5315 70.1424 16.7477C70.0305 16.9638 69.9726 17.5453 69.9726 18.4959V19.7297H71.957L71.9608 19.7259Z" fill="white"/>
<path d="M87.9223 13.7397L87.8026 15.2307C88.4087 14.6269 89.0766 14.1796 89.8063 13.8814C90.536 13.5832 91.3313 13.4341 92.1961 13.4341C93.25 13.4341 94.1612 13.6465 94.9333 14.0752C95.7016 14.5039 96.1803 14.9959 96.3734 15.555C96.5625 16.1142 96.659 17.0609 96.659 18.4028V25.5037C96.659 27.0357 96.5394 28.1279 96.2961 28.7765C96.0568 29.4251 95.5626 29.9395 94.8136 30.3271C94.0685 30.7111 93.1651 30.9049 92.1111 30.9049C91.2695 30.9049 90.4896 30.7558 89.7716 30.4613C89.0535 30.1668 88.3971 29.7233 87.8026 29.138V33.0035H81.0039V13.7397H87.9223ZM89.8565 18.6451C89.8565 17.6052 89.8063 16.9715 89.7059 16.7516C89.6055 16.5316 89.3237 16.4198 88.8643 16.4198C88.4049 16.4198 88.1269 16.5465 87.9956 16.8C87.8682 17.0535 87.8026 17.6685 87.8026 18.6414V25.6305C87.8026 26.6481 87.8682 27.2817 88.0034 27.5352C88.1385 27.7887 88.428 27.9154 88.8797 27.9154C89.3314 27.9154 89.5901 27.7999 89.6943 27.565C89.7986 27.3302 89.8526 26.7674 89.8526 25.869V18.6377L89.8565 18.6451Z" fill="white"/>
<path d="M104.977 20.2703H98.5957V19.1409C98.5957 17.8363 98.7965 16.8298 99.1941 16.1216C99.5918 15.4134 100.391 14.7909 101.592 14.2467C102.792 13.7062 104.352 13.4341 106.271 13.4341C108.572 13.4341 110.305 13.7397 111.471 14.3548C112.637 14.9698 113.34 15.7228 113.575 16.6174C113.811 17.512 113.93 19.3496 113.93 22.1378V30.5992H107.317V29.097C106.9 29.7009 106.367 30.1519 105.711 30.4539C105.055 30.7558 104.271 30.9049 103.364 30.9049C102.175 30.9049 101.082 30.6514 100.09 30.1482C99.0976 29.645 98.5996 28.5416 98.5996 26.8382V25.4515C98.5996 24.1879 98.8621 23.3306 99.391 22.8721C99.9199 22.4136 101.225 21.8806 103.313 21.273C105.545 20.6132 106.742 20.1659 106.9 19.9386C107.058 19.7112 107.136 19.2453 107.136 18.5408C107.136 17.6611 107.051 17.087 106.873 16.8187C106.699 16.5503 106.41 16.4198 106.004 16.4198C105.545 16.4198 105.259 16.5316 105.147 16.7553C105.035 16.9789 104.977 17.5604 104.977 18.5035V20.2703ZM107.132 22.5814C106.043 23.1815 105.414 23.6884 105.24 24.0947C105.066 24.501 104.977 25.0862 104.977 25.8467C104.977 26.7189 105.055 27.2817 105.205 27.5352C105.356 27.7887 105.657 27.9154 106.105 27.9154C106.553 27.9154 106.807 27.8148 106.939 27.6172C107.066 27.4197 107.132 26.8941 107.132 26.0479V22.5776V22.5814Z" fill="white"/>
<path d="M123.271 10.0308V12.7108H116.268V10.0308H123.271ZM123.271 13.7396V30.5991H116.268V13.7396H123.271Z" fill="white"/>
<path d="M132.514 13.7397L132.243 15.9576C133.232 14.3697 134.66 13.5273 136.536 13.4341V19.3683C135.289 19.3683 134.374 19.495 133.791 19.7485C133.208 20.0019 132.849 20.3561 132.714 20.8108C132.579 21.2656 132.514 22.3093 132.514 23.9419V30.5992H125.715V13.7397H132.514Z" fill="white"/>
<path fill-rule="evenodd" clip-rule="evenodd" d="M44.6811 0L44.7583 40.7416H42.2257L42.1523 0.0037275H44.685L44.6811 0Z" fill="white"/>
<path fill-rule="evenodd" clip-rule="evenodd" d="M22.4576 15.946L27.9668 8.92343L23.5695 5.71777L18.0371 12.6919L22.4576 15.946Z" fill="white"/>
</svg>
